<svg id="Layer_1" data-name="Layer 1" xmlns="http://www.w3.org/2000/svg" viewBox="0 0 841.89 595.28"><defs><style>.cls-1{fill:#fff;}.cls-2{fill:#242424;}</style></defs><path class="cls-1" d="M667.18,245.18l2.53-.67-5.26-5.34c-1.21-9.62,0-8.18.35-16.62.14-3.38-2.63-26.27-3.43-26.15-23.37,3.67-47.3,3.32-70.74,5.15-11.87.93-23.83.95-35.74,1.42l2.51,4.64-13.41.63.83-.93-.83-3.2-72.44,12.47,6.93-4.72-.13-1.17-88.6,5,.39,1.4-.3,1.52-.58-1.5.16-1.44L210.91,231.48l-.39-2.49-48.44,5.68,5.28,61.42-.75,4.88,2.7,10.81-.74-.31.7.94-1,1.84,4.75,18-.89,9.15.68,3,1.26,2.15,0,.07-2.64,1.9,2.33,3.13.5,3.93-2.53.67,5.26,5.34,1.08,8.62c.21,2.2-1.52,5.66-1.66,8-.29,5.24.83,13.16,1.76,18.48,13.6-5,27.85-4.33,42.06-3.65l36.39,1.73,18.6.88c1.81.09,9.61-1,11.33,2.13L284,393.2l13.41-.63-.83.93.83,3.2,72.44-12.47L363,389l.13,1.17,88.6-5-.39-1.4.29-1.52.59,1.5-.16,1.44,178.51-15.81.39,2.49L679.35,366l-5.27-61.25.75-4.88L672.13,289l.74.31-.7-.94,1-1.84-4.75-18,.89-9.15-.68-3-1.26-2.15,0-.07,2.63-1.9-2.32-3.13Zm-8-32.28.51.67-.29,1.6-.51-.67.29-1.6Zm-.43,14.43,1.17,5.88-.74-1.5-.43-4.38Zm-5.73-19.53,2.67,2.84.42,2.34-.47,1.11-1.79-3-1.6,1.15.77-4.41ZM645.54,209l-.57,4.55-1.79-2.67,2.36-1.88Zm-3.88-.21.57,1.43-.21,2.36-.58-1.43.22-2.36Zm-10.48,1,.59,1.51-.3,1.52-.58-1.5.29-1.53Zm-48.8,23.93.52-1.53.8,1.5-.52,1.53-.8-1.5Zm11.75,21.74-5.55,5.95-.83-1,1.42-2.74,0,0L590,257l.32,1.57,3.77-3.11Zm-3.33,0-.43-.29.66.39-.23-.1Zm-3.25-23.67-.85-.29.65-1.55.2,1.84Zm-9.61,29.35-1-1.49.73-1.53,1,1.49-.74,1.53Zm-2.6-.24-.84-.28.65-1.55.19,1.83Zm33-1.7-1.27-.54.06-1.89,3.35-3.86.08,1-.79,4.19-1.43,1.1Zm3.59-49.54-.33,2.59-1.08-2.1,1.41-.49Zm-3,.68L610.9,216l-1.13-.38-.82-5.34Zm-4.66,38,.87,1.86-1.75,1.56.88-3.42Zm-12-15-3.2-.15.32-1.22,2.88,1.37Zm-4.06-28.57.54-1.53.56,1.5-.53,1.53-.57-1.5Zm-6.88,1.2,6.51,2.72-10-1.4,3.44-1.32Zm-.6,52.07.58,1.51-.29,1.52-.59-1.5.3-1.53Zm-6.1-50.22-1.11,2.6-1.8-1.29,2.91-1.31Zm-4.1-5.22.17,4.11-1.47,3.07,1.3-7.18Zm-5.6,2.73.59-.71,0,2.21-.54-1.5Zm-24,54.2,6.36-1-1.85,5.12-7.5-2,3-2.12Zm-14.55-49.79,4.3-1.31-2.95,3.71-2.14-1.62.79-.78Zm-2.29,1.12.59-.7-.06,2.2-.53-1.5Zm-1.61-.72.59,1.58-.38.69-.59-1.58.38-.69Zm5.58,51.6,7.88,2-10.52-.89,2.64-1.12Zm-10.42-49.21,1.31-1.55.67,1.5L518.29,214l-.67-1.5Zm-4-2.18.59,1.58-.37.69L513.3,211l.37-.69Zm-21.86,4.47.65.74-.82.17.17-.91ZM493,289.39l-1,1.14,1-1.14Zm-9-76.83.5.67-.28,1.6-.51-.67.29-1.6Zm-86.51,89.08L394,303.47l-.31-1.16,4.79-2.35.31,1.34-1.31.34Zm4.34-3.5.4-.72-.74,1.29.34-.57Zm3.22-3.28,1.06,4.67L404,297.92l1-3.06Zm1.87,1.18-.09-.6,2,2.23L406.86,296Zm28.53,5.24,2.06,1.61-1,3.06-1.06-4.67Zm8.62-2.11,3.48-1.83.31,1.16L443,300.85l-.31-1.34,1.31-.34Zm-4.35,3.5-.39.72.74-1.29-.35.57Zm-5.08,2.1.09.6-2-2.23,1.89,1.63Zm2.22-40.62.55,4.42-1.66-1.45,1.11-3ZM421.9,227l.58,1.5-.29,1.52-.59-1.5.3-1.52ZM387.25,297l-1.21.3,1.21-.3Zm-70.13-77.29.53-.92-.22,2.28-.31-1.36ZM259.06,367.1l-.52,1.53-.8-1.5.52-1.53.8,1.5ZM234.34,343l0,1.11L231,347.91l-.09-1,.8-4.19,2.53-.86.17.3,0,.78Zm18,0,0,.2,0,0-.85.68-.32-1.57-3.77,3.11,5.55-5.95.82,1L252.3,343Zm-1.66,2.39.43.29-.66-.39.23.1ZM253.89,369l.84.29-.64,1.55-.2-1.84Zm9.61-29.35,1,1.49-.73,1.53-1-1.49.74-1.53Zm2.6.24.84.28-.65,1.55-.19-1.83Zm-83.88,48-.51-.67.29-1.6.51.67-.29,1.6Zm.43-14.43-1.17-5.88.74,1.5.43,4.38ZM188.38,393l-2.67-2.84-.42-2.35.47-1.1,1.78,3,1.61-1.15-.77,4.41Zm7.52-1.18.57-4.55,1.79,2.67-2.36,1.88Zm3.88.21-.57-1.43.21-2.36.58,1.43-.22,2.36Zm10.47-1-.58-1.51L210,388l.58,1.5-.3,1.53Zm19.26.14.33-2.59,1.08,2.1-1.41.49Zm3-.68-1.94-5.72,1.13.38.81,5.34Zm4.67-38-.87-1.86L238,349l-.88,3.42Zm12,15,3.2.15-.32,1.22-2.88-1.37Zm4.05,28.57-.53,1.53-.56-1.5.53-1.53.56,1.5Zm6.89-1.2-6.51-2.72,10,1.4-3.44,1.32Zm.6-52.07-.58-1.51.29-1.52.59,1.5-.3,1.53ZM266.8,393l1.12-2.59,1.8,1.29L266.8,393Zm4.11,5.23-.17-4.11,1.47-3.07-1.3,7.18Zm5.6-2.73-.6.71L276,394l.54,1.5Zm24-54.2-6.36,1,1.85-5.12,7.5,2-3,2.12Zm14.55,49.79-4.3,1.31,3-3.71,2.13,1.62-.78.78Zm2.29-1.12-.59.7.05-2.2.54,1.5Zm1.61.72-.59-1.58.38-.69.59,1.58-.38.69Zm-5.58-51.6-7.88-2L316,338l-2.64,1.12Zm10.42,49.21-1.31,1.55-.67-1.5,1.31-1.55.67,1.5Zm3.95,2.18-.59-1.58.37-.69.59,1.58-.37.69ZM349.63,386l-.65-.74.82-.17-.17.91Zm-1.14-74.59,1-1.14-1,1.14Zm9,76.83-.5-.67.28-1.6.51.67-.29,1.6Zm47.14-51.59-.55-4.42,1.66,1.45-1.11,3Zm14.9,37.2-.58-1.5.29-1.52.58,1.5-.29,1.52Zm34.65-70.09,1.21-.3-1.21.3Zm70.13,77.29-.53.92.22-2.28.31,1.36Z"/><polygon class="cls-2" points="337.66 251.41 351.32 251.41 342.54 295.11 328.88 295.11 332.25 278.18 322.43 278.18 319.06 295.11 305.4 295.11 311.98 262.33 300.51 262.33 293.93 295.11 280.28 295.11 286.86 262.33 255.68 262.33 254.49 268.34 274.16 268.34 272.18 278.18 252.52 278.18 251.32 284.18 270.99 284.18 268.81 295.11 235.5 295.11 244.27 251.41 327.83 251.41 324.38 268.34 334.21 268.34 337.66 251.41"/><path class="cls-2" d="M481.78,264.05h-2.26l-3.72,18.71H478a2.73,2.73,0,0,0,2.26-1c.93-1.14,1.54-3.9,2.43-8.38a43.64,43.64,0,0,0,1.15-7.17,2.3,2.3,0,0,0-.5-1.54A1.9,1.9,0,0,0,481.78,264.05ZM584.9,251.41,576,295.11h-201l8.79-43.7ZM410.1,265a4.47,4.47,0,0,0-1-3.08,5.32,5.32,0,0,0-4.26-1.54,6,6,0,0,0-4.62,1.75A9,9,0,0,0,398,267a12.43,12.43,0,0,0-.29,2.79,4,4,0,0,0,2.65,4l2.37,1.15c1.18.53,1.72,1.21,1.72,2.22a10.73,10.73,0,0,1-.25,2.25c-.36,1.65-.58,2.26-1.26,2.91A2.75,2.75,0,0,1,401,283a1.89,1.89,0,0,1-1.54-.64A2,2,0,0,1,399,281a9.75,9.75,0,0,1,.21-1.79h-3.8a14.71,14.71,0,0,0-.28,2.58,4.46,4.46,0,0,0,1.14,3.12c.94,1,2.19,1.5,4.38,1.5,2.36,0,3.83-.53,5-1.68s1.72-2.37,2.3-5.27a17.46,17.46,0,0,0,.36-3.37c0-2-.83-3.19-3.3-4.37l-2-1a2.08,2.08,0,0,1-1.4-2,9.13,9.13,0,0,1,.18-1.72,4.62,4.62,0,0,1,1.14-2.58,2.22,2.22,0,0,1,1.69-.65,1.6,1.6,0,0,1,1.29.54,2,2,0,0,1,.39,1.4,8,8,0,0,1-.21,1.86h3.8A15,15,0,0,0,410.1,265Zm26.15-4.33h-11.9l-.68,3.4h4.05l-4.41,22.11h3.8l4.41-22.11h4.05Zm25.58,0H458l-3.87,19.49c-.36,1.87-1.5,2.9-2.9,2.9a1.77,1.77,0,0,1-1.94-2,6,6,0,0,1,.11-1.11l3.87-19.28h-3.8l-3.8,19a9.55,9.55,0,0,0-.17,1.82,4.86,4.86,0,0,0,1.21,3.48,5.24,5.24,0,0,0,4,1.54,6.49,6.49,0,0,0,4.73-1.58,7.92,7.92,0,0,0,2.47-4.69Zm25.76,5.55a6.31,6.31,0,0,0-.86-3.44c-.9-1.36-2-2.11-4.34-2.11h-6l-5.09,25.51h6.34a6.66,6.66,0,0,0,5-1.86c1.69-1.61,2.33-3.94,3.73-10.93A51,51,0,0,0,487.59,266.2Zm25.76-5.55H503.17l-5.09,25.51h10.18l.68-3.4h-6.38L504.1,275h5.48l.68-3.37h-5.48l1.51-7.56h6.37Zm26.51,0h-3.8l-2.94,15.44-2.58-15.44h-3.19l-5.09,25.51h3.8l3.08-15.44,2.58,15.44h3Zm25.36,0h-11.9l-.68,3.4h4.05l-4.41,22.11h3.8l4.41-22.11h4Zm-331.6,44H574.28l-8.86,43.69H224.83ZM539.7,339.39h10.18l.68-3.4h-6.38l1.55-7.78h5.48l.68-3.37h-5.48l1.5-7.56h6.38l.68-3.41H544.79ZM514.27,335a4.44,4.44,0,0,0,1.15,3.12c.93,1,2.18,1.5,4.37,1.5,2.36,0,3.83-.54,5-1.68s1.72-2.37,2.3-5.27a17.54,17.54,0,0,0,.36-3.37c0-2-.83-3.19-3.3-4.37l-2-1a2.08,2.08,0,0,1-1.4-2,9.13,9.13,0,0,1,.18-1.72,4.55,4.55,0,0,1,1.15-2.58,2.19,2.19,0,0,1,1.68-.65,1.55,1.55,0,0,1,1.29.54,2,2,0,0,1,.39,1.4,8,8,0,0,1-.21,1.86H529a15,15,0,0,0,.25-2.58,4.47,4.47,0,0,0-1-3.08,5.28,5.28,0,0,0-4.26-1.54,6,6,0,0,0-4.62,1.75,9,9,0,0,0-2.26,4.88,12.43,12.43,0,0,0-.29,2.79,4,4,0,0,0,2.65,4l2.37,1.14c1.18.54,1.72,1.22,1.72,2.23a10.73,10.73,0,0,1-.25,2.25c-.36,1.65-.57,2.26-1.25,2.91a2.79,2.79,0,0,1-1.94.71,1.89,1.89,0,0,1-1.54-.64,2,2,0,0,1-.43-1.4,9.75,9.75,0,0,1,.21-1.79h-3.8A15.74,15.74,0,0,0,514.27,335Zm-26.08-.36a4.87,4.87,0,0,0,1.21,3.48,5.24,5.24,0,0,0,4,1.54,6.49,6.49,0,0,0,4.73-1.58,7.92,7.92,0,0,0,2.47-4.69l3.87-19.54h-3.8l-3.87,19.5c-.36,1.86-1.5,2.9-2.9,2.9a1.78,1.78,0,0,1-1.94-2,6.07,6.07,0,0,1,.11-1.12L496,313.87h-3.8l-3.8,19A9.75,9.75,0,0,0,488.19,334.66Zm-26.52-.5a5.83,5.83,0,0,0,.83,3.4c.79,1.33,2.18,2.12,4.51,2.12a6.11,6.11,0,0,0,4.7-1.76c1.68-1.61,2.37-3.51,3.94-11.29a42.68,42.68,0,0,0,1.11-7.52,5.59,5.59,0,0,0-.86-3.41c-.79-1.32-2.18-2.11-4.48-2.11a6.25,6.25,0,0,0-4.73,1.75c-1.65,1.62-2.33,3.52-3.94,11.29A46.08,46.08,0,0,0,461.67,334.16Zm-27.94,5.23h3.8l2.26-11.29h4.76l-2.25,11.29h3.8l5.08-25.52h-3.79l-2.19,10.86h-4.73l2.15-10.86h-3.8Zm-29.37-22.11L400,339.39h3.8l4.41-22.11h4l.68-3.41H401l-.68,3.41Zm-32.25,16.84a6,6,0,0,0,.86,3.52c.83,1.29,2.19,2,4.41,2a6.3,6.3,0,0,0,4.55-1.47c1.47-1.29,2.26-2.9,2.8-5.48h-3.84a5.9,5.9,0,0,1-1.18,2.61,2.38,2.38,0,0,1-2,.93c-1.29,0-1.83-.79-1.83-2.18a46.28,46.28,0,0,1,1.08-7.46c1.29-6.3,1.75-7.85,2.76-8.88a2.28,2.28,0,0,1,1.82-.76c1.4,0,1.79.93,1.79,2.08a7.18,7.18,0,0,1-.1,1.43h3.8a9.65,9.65,0,0,0,.1-1.64,6.08,6.08,0,0,0-1.07-3.59,5.21,5.21,0,0,0-4.23-1.68,6.15,6.15,0,0,0-4.73,1.79c-1.61,1.58-2.37,3.51-3.94,11.25A46.34,46.34,0,0,0,372.11,334.12Zm-25,5.27h10.17L358,336h-6.37l1.54-7.78h5.48l.68-3.37h-5.48l1.5-7.56h6.38l.68-3.41H352.19Zm-25.19-2.08c.86,1.44,2.36,2.37,4.8,2.37a6.62,6.62,0,0,0,4.77-1.79c1-1,1.83-2.58,2.33-5.2l3.76-18.82h-3.8l-3.73,18.71c-.5,2.44-1.61,3.69-3.22,3.69a2.3,2.3,0,0,1-2-1.11Zm-23.29-3.15a5.83,5.83,0,0,0,.83,3.4c.79,1.33,2.18,2.12,4.51,2.12a6.13,6.13,0,0,0,4.7-1.76c1.68-1.61,2.36-3.51,3.94-11.29a42.68,42.68,0,0,0,1.11-7.52,5.59,5.59,0,0,0-.86-3.41c-.79-1.32-2.19-2.11-4.48-2.11a6.23,6.23,0,0,0-4.73,1.75c-1.65,1.62-2.33,3.52-3.94,11.29A46.08,46.08,0,0,0,298.63,334.16Zm-27.76,5.23h3.8l2.11-10.57H279l1.15,10.57H284l-1.36-11.25c2.08-.93,3.29-2.3,4.19-6.74a16,16,0,0,0,.32-2.9c0-2.76-1.47-4.63-5.16-4.63h-6Zm-26.3,0h3.8l2-10h2.58c3.87,0,6.27-1.51,7.53-7.78a16,16,0,0,0,.28-3,4.79,4.79,0,0,0-1.18-3.48c-.93-.93-2.11-1.33-4.12-1.33h-5.77Zm222.77-3.12a2.42,2.42,0,0,0,1.79-.75c.93-.93,1.47-2.62,2.72-8.89a46.67,46.67,0,0,0,1.11-7.42c0-1.29-.46-2.22-1.9-2.22a2.39,2.39,0,0,0-1.79.76c-.93.93-1.47,2.61-2.72,8.88a47,47,0,0,0-1.11,7.42C465.44,335.34,465.9,336.27,467.34,336.27ZM256.65,321.65a12.89,12.89,0,0,0,.29-2.22c0-1.43-.58-2.15-2.19-2.15h-2L251,326h2.08C255.07,326,256,324.88,256.65,321.65Zm47.64,14.62a2.42,2.42,0,0,0,1.8-.75c.93-.93,1.47-2.62,2.72-8.89a47.88,47.88,0,0,0,1.11-7.42c0-1.29-.47-2.22-1.9-2.22a2.37,2.37,0,0,0-1.79.76c-.93.93-1.47,2.61-2.72,8.88a47,47,0,0,0-1.11,7.42C302.4,335.34,302.86,336.27,304.29,336.27ZM283,321.4a11.05,11.05,0,0,0,.25-2c0-1.29-.46-2.08-2-2.08h-2.16l-1.64,8.24h2.29C281.58,325.52,282.48,324,283,321.4Z"/></svg>